<?xml version="1.0" encoding="UTF-8"?>
<svg id="Layer_1" data-name="Layer 1" xmlns="http://www.w3.org/2000/svg" viewBox="0 0 249.78 249.82">
  <defs>
    <style>
      .cls-1 {
        fill: #fefefe;
      }

      .cls-2 {
        fill: #fefdfd;
      }

      .cls-3 {
        fill: #fcfbfb;
      }

      .cls-4 {
        fill: #92464b;
      }

      .cls-5 {
        fill: #7f262c;
      }

      .cls-6 {
        fill: #822a30;
      }

      .cls-7 {
        fill: #82292f;
      }

      .cls-8 {
        fill: #80272d;
      }

      .cls-9 {
        fill: #80262c;
      }

      .cls-10 {
        fill: #7e2329;
      }

      .cls-11 {
        fill: #9e5a5e;
      }

      .cls-12 {
        fill: #9d595d;
      }

      .cls-13 {
        fill: #ba8b8e;
      }

      .cls-14 {
        fill: #caa5a7;
      }

      .cls-15 {
        fill: #8c3b40;
      }

      .cls-16 {
        fill: #7d2228;
      }

      .cls-17 {
        fill: #7d2127;
      }

      .cls-18 {
        fill: #7c2127;
      }
    </style>
  </defs>
  <path class="cls-18" d="M118.28,0h3.03c.54,.19,1.09,.19,1.63,0h3.5c.47,.18,.93,.18,1.4,0h1.4c.23,.17,.47,.17,.7,0h1.4c1.88,.28,3.78,.27,5.66,.32,3.9,.1,7.71,.76,11.52,1.47,6.92,1.29,13.74,3.02,20.26,5.65,7.52,3.03,14.9,6.42,21.82,10.7,3.67,2.27,7.31,4.58,10.65,7.31,2.52,2.06,5.03,4.14,7.46,6.3,2.79,2.48,5.37,5.17,8,7.82,3.73,3.76,6.83,8.04,9.99,12.26,4.69,6.23,8.46,13.02,11.76,20.06,4.6,9.81,7.84,20.07,9.76,30.76,.94,5.22,1.31,10.45,1.44,15.72,0,.19-.03,.39,.12,.55v3.03c-.18,.47-.18,.93,0,1.4v3.03c-.18,.47-.18,.93,0,1.4v3.26c-.31,1.87-.27,3.78-.32,5.66-.11,4.56-.98,9.01-1.84,13.46-1.51,7.76-3.89,15.27-6.91,22.55-4.35,10.48-9.98,20.23-17.03,29.17-3.83,4.86-7.93,9.45-12.4,13.71-2.39,2.28-4.96,4.34-7.44,6.51-4.31,3.79-9.09,6.89-13.95,9.86-5.17,3.17-10.67,5.71-16.18,8.23-6.35,2.91-12.97,4.93-19.73,6.58-5.17,1.26-10.41,2.09-15.69,2.67-1.81,.2-3.64,.2-5.46,.26-5.28,.15-10.55,.17-15.83,.01-9.79-.29-19.31-2.18-28.68-4.97-2.9-.86-5.79-1.78-8.58-2.96-11.05-4.66-21.68-10.1-31.15-17.54-2.67-2.1-5.27-4.33-7.81-6.62-2.34-2.11-4.53-4.36-6.76-6.58-4.2-4.17-7.69-8.94-11.22-13.66-4.55-6.09-8.2-12.73-11.43-19.58-4.38-9.31-7.49-19.04-9.46-29.15-1.21-6.22-1.81-12.48-1.9-18.83-.06-4.31,.02-8.61,.06-12.92,.06-6.31,1.13-12.49,2.41-18.65,1.23-5.94,3.06-11.7,5.14-17.39,3.21-8.76,7.49-16.96,12.53-24.78,2.56-3.98,5.55-7.66,8.49-11.38,3.61-4.56,7.75-8.57,12.02-12.47,3.98-3.64,8.07-7.14,12.53-10.19,3.63-2.48,7.38-4.74,11.21-6.88,4.31-2.41,8.86-4.3,13.36-6.32,8.71-3.9,17.88-6.08,27.22-7.73,4.14-.73,8.32-.81,12.5-1.01,.26-.01,.55,.09,.78-.11Z"/>
  <path class="cls-11" d="M122.94,0c-.54,.29-1.09,.41-1.63,0h1.63Z"/>
  <path class="cls-12" d="M249.78,123.34c-.27-.47-.41-.93,0-1.4v1.4Z"/>
  <path class="cls-12" d="M249.78,127.77c-.41-.47-.27-.93,0-1.4v1.4Z"/>
  <path class="cls-4" d="M127.84,0c-.47,.37-.93,.3-1.4,0h1.4Z"/>
  <path class="cls-14" d="M129.94,0c-.23,.35-.47,.31-.7,0h.7Z"/>
  <path class="cls-1" d="M185.15,71.44c.93-2.22,1.78-4.25,2.63-6.27,.27-.65,.6-1.27,1.11-1.76,.53-.52,1.14-.81,1.89-.46,.72,.34,.81,.97,.76,1.67-.06,.83-.43,1.56-.68,2.34-.19,.58-.51,1.12-.5,1.89,.86-.79,1.28-1.75,1.81-2.62,.55-.9,1.11-1.78,2.02-2.37,.81-.53,1.68-.72,2.49-.11,.84,.64,.63,1.5,.25,2.32-.79,1.71-1.6,3.42-2.32,5.18,.65-.42,1-1.07,1.41-1.68,.65-.96,1.28-1.95,2.29-2.61,.52-.34,1.05-.71,1.71-.33,.66,.38,.99,.96,1.03,1.71,.05,.95-.38,1.73-.91,2.46-.92,1.25-1.86,2.48-2.79,3.72,.35,.28,.51-.04,.69-.2,.7-.62,1.36-1.28,2.07-1.88,.66-.55,1.4-.7,2.12-.12,.69,.55,.67,1.3,.36,2.01-.23,.53-.57,1.01-.92,1.48-4.85,6.43-8.56,13.46-11.2,21.05-1.29,3.7-2.45,7.43-2.74,11.38-.39,5.19,.56,10.21,1.95,15.16,2.69,9.59,6.36,18.77,11.23,27.48,1.93,3.45,3.99,6.82,6,10.21,.23,.39,.78,.85,.09,1.27-.61,.37-.8-.27-1.06-.59-5.6-6.81-9.45-14.64-12.78-22.71-2.92-7.07-5.28-14.32-6.64-21.87-1.09-6.01-.53-11.87,1.37-17.67,2.14-6.52,5.17-12.6,8.58-18.53,1.2-2.1,2.56-4.05,4.07-5.92,.27-.33,.51-.69,.73-1.05,.09-.14,.24-.34,.04-.52-.19-.16-.37-.05-.51,.09-.63,.58-1.25,1.17-1.87,1.75-.34,.32-.66,.67-1.04,.92-.72,.47-1.51,.5-2.14-.12-.64-.63-.45-1.34,.05-2,.99-1.3,1.99-2.58,2.97-3.88,.4-.52,.88-1,.92-1.71,.01-.23,.04-.5-.19-.63-.23-.13-.45,.02-.63,.17-.73,.59-1.32,1.31-1.83,2.09-.62,.94-1.15,1.94-2.01,2.7-.35,.31-.71,.62-1.12,.81-.46,.21-.99,.69-1.5,.24-.58-.52-.08-1.07,.14-1.57,1.03-2.26,2.09-4.5,3.12-6.76,.1-.22,.38-.49,.13-.73-.28-.27-.58-.05-.84,.12-1.17,.79-1.8,2.02-2.52,3.15-.68,1.05-1.38,2.07-2.47,2.75-.37,.23-.74,.69-1.25,.34-.59-.4-.19-.91-.04-1.36,.52-1.54,1.07-3.08,1.57-4.62,.11-.34,.32-.84-.13-1.01-.37-.14-.58,.33-.73,.62-1.45,2.71-2.55,5.56-3.55,8.46-.22,.64,.18,.7,.61,.84,2.9,.93,4.15,3.47,3.12,6.32-.08,.22-.21,.41-.32,.62-.14,.26-.35,.44-.66,.36-.37-.09-.52-.41-.42-.72,.87-2.86-.12-4.72-2.92-5.74-.66-.24-.82-1-.97-1.65-.19-.79-.31-1.6-.68-2.34-.31-.62-.74-1.11-1.46-1.21-.51-.07-1.04,.02-1.35,.48-.29,.43-.02,.82,.26,1.15,1.02,1.21,1.12,2.63,.86,4.08-.3,1.64-.12,3.13,.71,4.59,1.41,2.48,1.33,5.15,.63,7.79-3.64,13.7-12.1,22.88-25.71,27.11-2.49,.77-5.09,1.19-7.63,1.84-2.71,.7-5.22,1.78-6.9,4.19-.94,1.35-1.47,2.81-1.25,4.48,.04,.31,.16,.69-.26,.78-.51,.11-.4-.38-.44-.63-.32-1.78,.22-3.38,1.17-4.86,1.27-1.99,3.13-3.27,5.11-4.48,2.52-1.53,5.37-1.86,8.12-2.5,9.01-2.08,16.13-6.94,21.26-14.57,2.8-4.17,4.81-8.76,5.36-13.86,.15-1.37,.16-2.75-.59-3.96-1.18-1.87-1.5-3.88-1.12-6.02,.21-1.17-.04-2.21-.66-3.22-.79-1.29-.71-2.26,.18-3.04,.98-.86,2.5-.94,3.55-.21,.84,.58,1.25,1.45,1.71,2.48Z"/>
  <path class="cls-1" d="M80.86,117.88c0-.57,.02-1.7,0-2.82-.02-1.15-.08-2.15-1.31-2.92-1.24-.78-.71-2.85,.79-3.17,2.45-.52,4.94-.48,7.4,0,.77,.15,1.25,.74,1.36,1.56,.11,.82-.14,1.53-.88,1.86-.88,.39-.97,1.05-1.01,1.86-.14,3.1-.35,6.21,.04,9.31,.21,1.73,1.42,2.61,3.4,2.58,1.99-.03,3.21-.95,3.38-2.65,.34-3.33,.25-6.67,.05-10.01-.03-.54-.36-.71-.72-.93-.83-.5-1.15-1.25-.97-2.18,.18-.92,.86-1.32,1.73-1.49,1.62-.31,3.24-.3,4.86,.03,.82,.17,1.44,.6,1.6,1.48,.16,.89-.1,1.66-.94,2.06-.76,.36-.92,.94-.93,1.69-.05,3.11-.07,6.21-.22,9.32-.17,3.64-2.09,5.9-5.64,6.74-2.43,.57-4.86,.42-7.24-.29-2.91-.86-4.32-2.96-4.69-5.88-.24-1.86-.09-3.72-.05-6.14Z"/>
  <path class="cls-1" d="M108.75,160.76c-2.09-.07-3.97-.26-5.74-1.05-2.18-.96-3.5-4.62-2.45-6.77,.62-1.27,2.12-1.47,3.22-.43,.63,.6,1.01,1.37,1.48,2.08,.85,1.28,1.97,2.06,3.6,1.9,.73-.07,1.27-.39,1.48-1.1,.21-.73-.11-1.29-.72-1.68-.46-.29-.92-.59-1.42-.79-1.55-.62-2.87-1.62-4.29-2.46-2.31-1.38-3.5-3.37-3.17-6.1,.34-2.77,2.19-4.25,4.64-5.13,1.29-.46,2.65-.56,4.02-.48,1.25,.07,2.47,.52,3.77,.13,.54-.16,1.12,.21,1.58,.6,1.42,1.21,2.08,2.78,2.1,4.61,.01,.92-.37,1.66-1.24,2.07-.84,.4-1.62,.15-2.26-.42-.69-.62-1.32-1.32-1.96-1.99-.8-.84-1.8-1.06-2.88-.82-1.17,.26-1.44,1.32-.59,2.17,.88,.87,2.03,1.27,3.11,1.77,1.16,.53,2.31,1.08,3.4,1.77,2.13,1.34,2.96,3.32,2.83,5.73-.14,2.63-1.63,4.35-3.92,5.47-1.51,.73-3.12,.87-4.58,.91Z"/>
  <path class="cls-1" d="M124.92,130.11c-.96-.05-2.01,.07-3.04-.21-.89-.24-1.57-.69-1.71-1.67-.14-.96,.27-1.68,1.13-2.1,.57-.28,.72-.68,.74-1.29,.16-3.65,.23-7.3,0-10.95-.04-.64-.18-1.07-.8-1.37-.81-.39-1.21-1.07-1.08-2,.13-.94,.79-1.37,1.61-1.64,.15-.05,.3-.1,.46-.09,3.83,.05,7.68-.53,11.5,.11,3.21,.54,4.91,3.02,4.76,6.28-.21,4.58-3.46,6.68-7.34,6.74-.04,0-.08,0-.12,0-.83,.12-2.14-.42-2.4,.2-.39,.96-.1,2.21-.07,3.33,.01,.43,.44,.51,.72,.68,.81,.49,1.24,1.17,1.08,2.13-.15,.93-.8,1.34-1.66,1.57-1.22,.32-2.47,.24-3.79,.26Z"/>
  <path class="cls-1" d="M108.9,108.74c1.93-.03,3.87-.3,5.8,.1,3.05,.63,4.73,2.31,4.95,5.03,.3,3.68-1.08,6.24-3.94,7.41-1.63,.66-3.32,.74-5.03,.63-.73-.05-1.1,.12-1,.93,.07,.58,.04,1.16,.05,1.74,0,.73,.15,1.32,.93,1.68,.78,.36,1.05,1.1,.94,1.95-.12,.88-.66,1.39-1.49,1.57-2.3,.5-4.62,.43-6.94,.1-.9-.13-1.59-.62-1.75-1.62-.16-1.02,.27-1.74,1.16-2.18,.42-.21,.62-.5,.65-.98,.22-3.8,.21-7.6,.03-11.4-.02-.49-.17-.87-.67-1.11-.89-.43-1.36-1.12-1.18-2.16,.19-1.06,.99-1.44,1.9-1.61,1.66-.32,3.33,0,5-.09,.19-.01,.39,0,.58,0Z"/>
  <path class="cls-1" d="M126.1,139.01c1.97,0,3.86-.26,5.76,.13,3.05,.63,4.6,2.12,4.98,4.88,.42,3.06-.93,5.67-3.33,7.12-1.77,1.06-3.62,1.19-5.54,1.07-.9-.06-1.18,.22-1.07,1.08,.06,.5,.04,1.01,.02,1.51-.03,.79,.14,1.4,.96,1.78,.78,.37,1.03,1.11,.91,1.97-.11,.83-.6,1.33-1.39,1.52-2.38,.56-4.77,.48-7.16,.11-.92-.14-1.54-.74-1.66-1.71-.11-.91,.3-1.59,1.1-2,.49-.25,.72-.56,.76-1.15,.21-3.76,.28-7.52,0-11.28-.04-.49-.1-.87-.62-1.11-.89-.41-1.42-1.11-1.22-2.14,.2-1.08,1.03-1.5,2-1.66,1.85-.3,3.72,.08,5.5-.11Z"/>
  <path class="cls-1" d="M73.83,130.1c-1.41,0-2.58,.07-3.71-.27-.83-.25-1.5-.68-1.65-1.6-.13-.81,.18-1.45,.87-1.88,.29-.18,.48-.33,.29-.73-.22-.45-.33-.98-.96-1.03-1.51-.12-3.03-.08-4.54,0-.56,.03-.61,.52-.77,.9-.21,.52,.27,.56,.54,.71,.81,.46,1.37,1.1,1.19,2.07-.18,1-.93,1.5-1.89,1.64-1.66,.25-3.33,.36-4.98-.04-.86-.21-1.63-.61-1.74-1.63-.11-1.04,.44-1.72,1.36-2.06,.76-.28,1.2-.78,1.5-1.5,1.95-4.68,4.02-9.32,5.2-14.28,.25-1.06,.79-1.76,1.9-1.92,1.49-.21,2.8,.09,3.61,1.5,1.05,1.82,1.79,3.78,2.55,5.73,1.17,2.99,2.33,5.99,3.49,8.99,.26,.67,.75,1.03,1.39,1.31,.92,.4,1.56,1.07,1.43,2.16-.13,1.06-.96,1.44-1.85,1.68-1.14,.31-2.31,.29-3.23,.27Z"/>
  <path class="cls-1" d="M86.22,148.01c.14,2.09,.22,4.04,1.4,5.72,1.89,2.71,5.71,2.97,7.9,.53,.55-.61,1.17-1.05,2.03-.81,.9,.25,1.26,.99,1.39,1.83,.17,1.06,0,2.09-.5,3.05-.26,.5-.64,1.07-1.16,1.05-1.93-.08-3.5,1.15-5.36,1.33-7.74,.77-12.84-4.37-12.46-11.87,.43-8.53,8.47-11.44,14.54-9.56,.53,.16,1,.26,1.56,.14,1.37-.29,2.42,.64,3.04,2.57,.65,2.04,.34,3.75-.84,4.31-.87,.41-1.67,.16-2.36-.46-.67-.59-1.28-1.24-1.96-1.82-1.2-1.02-2.65-1.27-4.16-1.06-1.64,.23-2.78,1.7-2.97,3.7-.05,.5-.07,1.01-.09,1.36Z"/>
  <path class="cls-1" d="M69.82,138.73c.8-.03,1.76,.08,2.7,.35,.85,.25,1.65,.59,2.58,.27,.43-.15,.91,.11,1.3,.39,1.28,.95,2.11,3.95,1.51,5.45-.48,1.2-1.72,1.63-2.86,.97-.61-.35-1.07-.89-1.56-1.39-1.09-1.13-2.37-1.85-3.99-1.88-2.09-.03-3.5,1.03-3.9,3.07-.44,2.22-.21,4.43,.55,6.53,1.02,2.8,4.07,4.12,6.87,3.12,.69-.25,1.17-.73,1.62-1.28,.57-.71,1.27-1.2,2.22-.86,.91,.33,1.23,1.13,1.32,2.02,.09,.95-.07,1.86-.49,2.71-.26,.54-.67,1.18-1.22,1.15-1.94-.08-3.51,1.15-5.37,1.33-6.79,.67-12.03-3.27-12.46-10.37-.42-6.78,4.18-11.62,11.19-11.61Z"/>
  <path class="cls-1" d="M172.7,93.52c.02,10.58-9.12,18.17-19.54,15.99-6.43-1.35-13.31-7.48-12.46-15.86,.57-5.54,3.02-10.04,7.98-13.09,3.71-2.29,7.59-3.34,11.82-2.57,6.16,1.13,9.72,5.19,11.59,10.93,.48,1.48,.61,3.04,.61,4.6Z"/>
  <path class="cls-1" d="M174.89,115.13c.36-1.08,.58-2.18,1.23-3.12,.65-.93,1.45-1.53,2.64-1.29,1.2,.25,1.67,1.16,1.88,2.25,.24,1.3-.12,2.55-.5,3.76-.61,1.91-1.34,3.79-2.05,5.67-.41,1.07-.82,1.18-1.71,.47-1.42-1.15-2.97-2.1-4.47-3.13-.98-.67-1.8-1.49-1.95-2.75-.13-1.11,.09-2.1,1.12-2.72,.96-.58,1.94-.4,2.86,.12,.33,.19,.61,.47,.95,.74Z"/>
  <path class="cls-1" d="M147.66,159.25c-.21,1.17-.87,1.53-2.07,1.4-1.38-.14-2.79-.03-4.19-.04-.55,0-1.13,.03-1.43-.55-.29-.56,0-.95,.44-1.29,.28-.22,.2-.57,.21-.87,.02-1.13,.01-2.25,.02-3.38,0-.43-.09-.79-.42-1.15-.63-.69-.41-1.43,.49-1.49,1.89-.13,3.8-.15,5.7-.09,.83,.03,.89,.88,.95,1.53,.05,.55-.02,1.18-.74,1.22-.6,.03-.58,.31-.53,.73,.1,.78,.01,1.55-.12,2.32-.39,1.23-1.14,.65-2.02,.27,1.04,.93,1.66,.4,2.27-.25,.69-.5,1.2-.43,1.46,.45,.33,.4,.34,.79-.02,1.18Z"/>
  <path class="cls-1" d="M180.51,156.52c0,1.02-.15,1.74-.48,2.41-1.05,2.15-3.66,2.5-5.17,.64-1.14-1.41-1.31-3.04-.66-4.72,.54-1.4,1.78-2.18,3.16-2.12,1.32,.06,2.5,1.03,2.91,2.46,.15,.52,.2,1.06,.24,1.33Z"/>
  <path class="cls-1" d="M194.36,155.65c.07,.98-.37,2.07,.58,2.9,.14,.12,.12,.55,.04,.79-.27,.76-.61,1.48-.83,2.27-.18,.65-1.08,.41-1.68,.39-.51-.02-.78-.41-.71-.88,.14-.93-.36-1.01-1.07-.94-.38,.04-.77,.01-1.16,0-1.4-.02-1.86-.59-1.26-1.8,1.01-2.03,2.5-3.72,4.1-5.31,.41-.41,.99-.47,1.53-.26,.54,.21,.46,.75,.46,1.21,0,.54,0,1.09,0,1.63Z"/>
  <path class="cls-2" d="M170.59,158.26c.58,.24,.96,.08,1.28-.32,.23-.29,.55-.47,.92-.28,.38,.19,.52,.57,.49,.98-.06,.7-.29,1.36-.66,1.96-.18,.29-.48,.49-.78,.36-1.38-.62-2.82-.22-4.23-.33-.46-.04-.99,.01-1.19-.52-.2-.54,.25-.86,.58-1.16,.91-.84,1.86-1.65,2.55-2.69,.28-.41,.65-.95,.2-1.36-.41-.38-.85,.05-1.22,.33-.5,.38-1.06,.89-1.61,.23-.54-.66-.06-1.21,.46-1.69,.92-.84,1.99-1.2,3.21-.98,1,.18,1.82,.68,2.15,1.72,.32,.99-.03,1.84-.73,2.54-.43,.43-.92,.8-1.42,1.23Z"/>
  <path class="cls-2" d="M184.94,158.27c.6,.25,.97,.04,1.29-.36,.25-.31,.58-.42,.93-.25,.35,.17,.43,.53,.43,.9,0,.72-.24,1.37-.6,1.98-.19,.33-.52,.56-.87,.39-1.23-.58-2.52-.21-3.77-.32-.56-.05-1.28,.18-1.55-.48-.3-.74,.43-1.1,.86-1.5,.84-.76,1.67-1.52,2.28-2.48,.24-.37,.61-.86,.17-1.26-.44-.4-.86,.02-1.23,.29-.53,.39-1.1,.97-1.68,.17-.52-.73,.1-1.21,.58-1.66,.89-.82,1.95-1.13,3.12-.93,.96,.17,1.78,.63,2.12,1.61,.36,1.02,.06,1.92-.69,2.66-.43,.43-.91,.8-1.4,1.23Z"/>
  <path class="cls-2" d="M147.9,158.1c.21-.25,.59-.31,.32-.89-.77-1.64,.19-2.98,2-3.1,2.35-.15,2.12,.14,2.67,1.54,.1,.26,.13,.57-.06,.78-.38,.41-.15,.71,.06,1.1,.58,1.12,.2,2.22-.92,2.85-1.52,.86-3.56,.31-4.11-1.11-.11-.4-.18-.79,.04-1.18Z"/>
  <path class="cls-2" d="M154.19,157.58c-.07-.71,.14-1.38-.68-1.98-.64-.47,0-1.2,.59-1.56,.77-.48,1.55-1.71,2.44-.82,.48,.48,.71,1.04,1.5,1.13,.44,.05,.36,.52,.35,.87-.01,.43-.29,.57-.67,.67-.33,.08-.89-.19-.91,.43-.03,.77-.01,1.55,.08,2.31,.03,.27,.39,.11,.6,.03,.48-.18,.87-.07,1.05,.41,.18,.46-.05,.84-.42,1.11-.88,.63-1.87,.8-2.86,.39-.86-.35-1.04-1.18-1.06-2.04,0-.31,0-.62,0-.93Z"/>
  <path class="cls-3" d="M161.94,159.09c.03,.95-.63,1.69-1.42,1.62-.8-.07-1.39-.46-1.43-1.37-.04-.83,.61-1.51,1.43-1.47,.85,.04,1.34,.5,1.42,1.22Z"/>
  <path class="cls-7" d="M146.21,157.61c-.29,1.12-1.19,1.15-2.1,1.18-.51,.02-.73-.25-.66-.7,.06-.4-.35-.98,.3-1.17,.51-.15,.54,.32,.71,.66,.44,.87,.98,.4,1.49,.02,.08,0,.16,0,.25,.01Z"/>
  <path class="cls-13" d="M147.9,158.1c-.01,.39-.03,.78-.04,1.18-.07,0-.14-.01-.2-.03,0-.39,.01-.79,.02-1.18,.07,.03,.15,.04,.23,.03Z"/>
  <path class="cls-17" d="M128.52,115.24c0-.23-.05-.48,0-.69,.18-.65-.54-1.76,.92-1.78,1.73-.02,2.56,.54,2.68,1.88,.17,1.94-1.21,3.16-3.2,2.87-.39-.06-.42-.24-.42-.53,0-.58,0-1.16,0-1.74h0Z"/>
  <path class="cls-10" d="M111,112.8c.97-.01,1.84,.16,2.21,1.17,.35,.96,.34,1.99-.33,2.75-.71,.81-1.83,.72-2.83,.77-.4,.02-.33-.36-.33-.61,0-1.01,.08-2.02,.04-3.02-.04-.97,.41-1.24,1.24-1.05Z"/>
  <path class="cls-16" d="M126.93,145.54c0-.23-.06-.48,.01-.69,.19-.61-.48-1.59,.74-1.75,1.51-.19,2.51,.32,2.82,1.44,.31,1.09-.08,2.24-.9,2.63-.61,.29-1.27,.3-1.92,.41-.63,.11-.83-.14-.77-.75,.04-.42,0-.85,0-1.28h.02Z"/>
  <path class="cls-9" d="M66.59,117.78c.27,.69,.45,1.15,.62,1.62,.09,.25,.16,.5,.28,.86-.64,.15-1.68,.23-1.73,0-.19-.81,.36-1.54,.83-2.48Z"/>
  <path class="cls-17" d="M156.05,108.03c-5.47-.41-9.92-3.19-12.44-8.55-3.16-6.73-.98-13.47,4.93-17.16,1.38-.86,3.08-1.19,4.57-1.89,2.01-.95,4.11-1.14,6.2-.64,8.15,1.93,13.48,8.91,11.44,17.49-1.33,5.6-7.46,10.86-14.7,10.75Z"/>
  <path class="cls-17" d="M179.15,113.98c-.19,2.36-1.25,4.53-2.09,6.77-.16,.43-.36,.26-.6,.09-1.29-.92-2.62-1.8-3.88-2.75-.92-.69-1.25-1.86-.79-2.42,.44-.55,1.52-.29,2.39,.57,.19,.19,.44,.37,.52,.6,.17,.51,.41,.84,.99,.73,.56-.1,.56-.6,.6-1,.1-1.09,.32-2.15,.83-3.12,.29-.56,.55-1.36,1.38-1.12,.73,.21,.61,.98,.65,1.67Z"/>
  <path class="cls-8" d="M145.33,153.64c-.41,.37-.9,.47-.92,.96-.02,.43-.28,.51-.62,.48-.52-.04-.32-.44-.33-.71-.01-.32-.11-.74,.45-.73,.42,0,.84,0,1.42,0Z"/>
  <path class="cls-5" d="M177.69,158.8c-.91-.82-1.47-2.94-1.1-3.79,.04-.09,.13-.23,.2-.24,.28-.03,.38,.21,.48,.41,.54,1.11,.61,2.28,.41,3.62Z"/>
  <path class="cls-15" d="M190.6,158c.26-.62,.6-1.01,.99-1.4,.31,1.44,.31,1.45-.99,1.4Z"/>
  <path class="cls-6" d="M150.62,158.96c-.46,.14-.7,.04-.84-.31,.37-.23,.56,.04,.84,.31Z"/>
</svg>